<svg width="81" height="80" viewBox="0 0 81 80" fill="none" xmlns="http://www.w3.org/2000/svg">
<g clip-path="url(#clip0_153_120)">
<path d="M0.305664 0H80.3057V80H0.305664V0Z" fill="#F7DF1E"/>
<path d="M21.3406 66.8538L27.4625 63.1488C28.6438 65.2429 29.7181 67.0147 32.2953 67.0147C34.7656 67.0147 36.3235 66.0485 36.3235 62.2897V36.7279H43.8413V62.396C43.8413 70.1825 39.2769 73.7269 32.6175 73.7269C26.6035 73.7269 23.1125 70.6122 21.3403 66.8532M47.9247 66.0482L54.046 62.5041C55.6575 65.1357 57.7519 67.0688 61.4569 67.0688C64.5722 67.0688 66.5585 65.5113 66.5585 63.3632C66.5585 60.7857 64.5178 59.8725 61.081 58.3694L59.2019 57.5632C53.7778 55.2547 50.18 52.3547 50.18 46.2329C50.18 40.5941 54.476 36.2979 61.1888 36.2979C65.9681 36.2979 69.405 37.9628 71.875 42.3125L66.0213 46.0719C64.7322 43.7628 63.3366 42.85 61.1885 42.85C58.9866 42.85 57.5903 44.2463 57.5903 46.0719C57.5903 48.3272 58.9866 49.2407 62.2085 50.6369L64.0878 51.4422C70.4785 54.1813 74.0763 56.9735 74.0763 63.256C74.0763 70.0229 68.76 73.7279 61.6178 73.7279C54.6369 73.7279 50.126 70.3985 47.9244 66.0485" fill="black"/>
</g>
<defs>
<clipPath id="clip0_153_120">
<rect width="80" height="80" fill="white" transform="translate(0.305664)"/>
</clipPath>
</defs>
</svg>
